<svg preserveAspectRatio="none" width="100%" height="100%" overflow="visible" style="display: block;" viewBox="0 0 1920 4309" fill="none" xmlns="http://www.w3.org/2000/svg">
<path d="M1924 4308.76C1924 4308.76 2171.31 83.6089 1924 51.7575C1827.38 39.313 1683.56 118.257 1683.56 118.257C1683.56 118.257 1547.15 3.67048 1444 6.75751C1318.88 10.5021 1180.5 189.257 1180.5 189.257C1180.5 189.257 1053.83 100.744 960 89.7575C832.424 74.8192 646.5 189.257 646.5 189.257C646.5 189.257 653.712 100.995 631.5 51.7575C561.583 -103.23 205 139.257 205 139.257C205 139.257 87.2617 56.0049 0.500107 51.7575C-248.551 39.5651 0.500107 4308.76 0.500107 4308.76H1924Z" fill="#12161B"/>
</svg>
